<svg width="165" height="167" viewBox="0 0 165 167" fill="none" xmlns="http://www.w3.org/2000/svg">
<mask id="path-1-inside-1_17_185" fill="white">
<path fill-rule="evenodd" clip-rule="evenodd" d="M148.871 81.421C154.102 84.4408 154.102 91.9904 148.871 95.0102L136.605 102.092C134.028 103.58 130.743 102.354 129.255 99.7773C120.421 84.476 100.855 79.2329 85.5539 88.0669C70.2527 96.9013 65.0098 116.468 73.844 131.769C75.3318 134.346 74.7518 137.803 72.1749 139.291L59.3907 146.672C54.1602 149.692 47.6221 145.917 47.6221 139.877L47.6223 36.5542C47.6223 30.5146 54.1604 26.7398 59.3908 29.7596L148.871 81.421Z"/>
</mask>
<path fill-rule="evenodd" clip-rule="evenodd" d="M148.871 81.421C154.102 84.4408 154.102 91.9904 148.871 95.0102L136.605 102.092C134.028 103.58 130.743 102.354 129.255 99.7773C120.421 84.476 100.855 79.2329 85.5539 88.0669C70.2527 96.9013 65.0098 116.468 73.844 131.769C75.3318 134.346 74.7518 137.803 72.1749 139.291L59.3907 146.672C54.1602 149.692 47.6221 145.917 47.6221 139.877L47.6223 36.5542C47.6223 30.5146 54.1604 26.7398 59.3908 29.7596L148.871 81.421Z" fill="#D9CBAE"/>
<path d="M129.255 99.7773L135.37 96.2469L135.37 96.2468L129.255 99.7773ZM85.5539 88.0669L82.0234 81.9517L82.0233 81.9518L85.5539 88.0669ZM73.844 131.769L67.7288 135.3L67.7289 135.3L73.844 131.769ZM59.3907 146.672L55.8601 140.557L59.3907 146.672ZM47.6221 139.877L40.5609 139.877L47.6221 139.877ZM72.1749 139.291L75.7055 145.406L72.1749 139.291ZM148.871 95.0102L145.341 88.8951L133.074 95.9773L136.605 102.092L140.135 108.208L152.402 101.125L148.871 95.0102ZM129.255 99.7773L135.37 96.2468C124.586 77.5683 100.702 71.1678 82.0234 81.9517L85.5539 88.0669L89.0844 94.1821C101.008 87.298 116.256 91.3837 123.14 103.308L129.255 99.7773ZM85.5539 88.0669L82.0233 81.9518C63.345 92.736 56.9447 116.621 67.7288 135.3L73.844 131.769L79.9591 128.238C73.0748 116.315 77.1605 101.067 89.0846 94.182L85.5539 88.0669ZM72.1749 139.291L68.6443 133.176L55.8601 140.557L59.3907 146.672L62.9213 152.787L75.7055 145.406L72.1749 139.291ZM47.6221 139.877L54.6832 139.877L54.6834 36.5542L47.6223 36.5542L40.5611 36.5542L40.5609 139.877L47.6221 139.877ZM59.3908 29.7596L55.8603 35.8747L145.341 87.5362L148.871 81.421L152.402 75.3059L62.9214 23.6444L59.3908 29.7596ZM47.6223 36.5542L54.6834 36.5542C54.6834 36.3483 54.7316 36.2341 54.778 36.1569C54.8355 36.0612 54.9341 35.9565 55.0757 35.8747C55.2173 35.7929 55.3573 35.76 55.4689 35.758C55.559 35.7564 55.682 35.7718 55.8603 35.8747L59.3908 29.7596L62.9214 23.6444C52.9835 17.9068 40.5611 25.0789 40.5611 36.5542L47.6223 36.5542ZM59.3907 146.672L55.8601 140.557C55.6818 140.66 55.5588 140.675 55.4687 140.674C55.3571 140.672 55.2172 140.639 55.0755 140.557C54.9339 140.475 54.8354 140.37 54.7778 140.275C54.7314 140.197 54.6832 140.083 54.6832 139.877L47.6221 139.877L40.5609 139.877C40.5609 151.353 52.9833 158.525 62.9213 152.787L59.3907 146.672ZM136.605 102.092L133.074 95.9773C133.738 95.5943 134.401 95.6425 134.752 95.7596C135.055 95.8603 135.247 96.0328 135.37 96.2469L129.255 99.7773L123.14 103.308C126.169 108.555 133.515 112.03 140.135 108.208L136.605 102.092ZM73.844 131.769L67.7289 135.3C67.6057 135.086 67.5522 134.834 67.6162 134.521C67.6908 134.158 67.9808 133.559 68.6443 133.176L72.1749 139.291L75.7055 145.406C82.3276 141.583 82.9876 133.484 79.959 128.238L73.844 131.769ZM148.871 95.0102L152.402 101.125C162.34 95.3877 162.34 81.0435 152.402 75.3059L148.871 81.421L145.341 87.5362C145.519 87.6391 145.594 87.7379 145.638 87.8167C145.692 87.9144 145.733 88.0521 145.733 88.2156C145.733 88.3792 145.692 88.5169 145.638 88.6145C145.594 88.6933 145.519 88.7922 145.341 88.8951L148.871 95.0102Z" fill="#1A1417" mask="url(#path-1-inside-1_17_185)"/>
<circle cx="101.441" cy="116.18" r="19.7905" transform="rotate(-30 101.441 116.18)" fill="#D9CBAE" stroke="#1A1417" stroke-width="7.06115"/>
<path d="M118.942 107.266C119.131 107.592 119.182 107.98 119.084 108.343C118.987 108.707 118.749 109.017 118.422 109.206C118.096 109.394 117.709 109.445 117.345 109.348C116.981 109.25 116.671 109.012 116.482 108.686C114.219 104.775 110.497 101.923 106.132 100.753C101.768 99.5838 97.1178 100.193 93.2022 102.448C92.987 102.572 92.7717 102.696 92.5684 102.834C89.5189 104.817 87.3458 107.894 86.4967 111.432C85.6475 114.969 86.187 118.697 88.0039 121.848C89.5129 124.455 91.9944 126.357 94.9041 127.137C97.8137 127.917 100.914 127.51 103.524 126.007C105.316 124.969 106.624 123.263 107.16 121.263C107.696 119.263 107.417 117.131 106.383 115.337C105.63 114.032 104.389 113.08 102.934 112.69C101.478 112.3 99.9278 112.504 98.6231 113.257C98.2969 113.446 98.0588 113.756 97.9614 114.12C97.8639 114.484 97.9149 114.871 98.1032 115.197C98.2916 115.524 98.6018 115.762 98.9656 115.859C99.3294 115.957 99.7171 115.906 100.043 115.717C100.696 115.341 101.471 115.238 102.199 115.433C102.926 115.628 103.547 116.104 103.923 116.757C104.582 117.899 104.761 119.255 104.42 120.529C104.079 121.802 103.246 122.888 102.104 123.547C100.146 124.675 97.8211 124.979 95.6388 124.395C93.4566 123.81 91.5954 122.383 90.4638 120.428C88.9605 117.818 88.5541 114.718 89.3337 111.808C90.1133 108.898 92.0153 106.417 94.6224 104.908C97.8853 103.029 101.76 102.521 105.397 103.495C109.034 104.47 112.136 106.847 114.023 110.106C116.089 113.695 116.648 117.958 115.576 121.959C114.504 125.959 111.889 129.371 108.305 131.446C104.389 133.701 99.7389 134.311 95.3745 133.141C91.0102 131.972 87.2879 129.119 85.0242 125.208C82.5812 120.967 81.9207 115.929 83.1876 111.201C84.4545 106.473 87.5454 102.44 91.782 99.9881C96.3501 97.3572 101.775 96.646 106.867 98.0103C111.959 99.3747 116.302 102.703 118.942 107.266Z" fill="#1A1417"/>
</svg>
